<svg xmlns="http://www.w3.org/2000/svg" viewBox="0 0 24 24" fill="currentColor" width="20" height="20"><path d="M12 10.8c-1.087-2.114-4.046-6.053-6.798-7.995C2.566.944 1.561 1.266.902 1.565.139 1.908 0 3.08 0 3.768c0 .69.378 5.65.624 6.479.785 2.627 3.584 3.493 6.173 3.26-3.883.567-7.305 2.07-4.215 7.225C5.724 25.36 10.237 19.46 12 16.357c1.763 3.103 5.516 8.37 8.418 4.375 3.09-5.155-.332-6.658-4.215-7.224 2.59.233 5.388-.634 6.173-3.261C22.622 9.418 23 4.458 23 3.768c0-.69-.139-1.861-.902-2.203-.659-.3-1.664-.62-4.3 1.24C15.046 4.748 12.087 8.687 12 10.8z"/></svg>
